<?xml version="1.0" encoding="UTF-8" standalone="no" ?>
<!DOCTYPE svg PUBLIC "-//W3C//DTD SVG 1.1//EN" "http://www.w3.org/Graphics/SVG/1.1/DTD/svg11.dtd">
<svg xmlns="http://www.w3.org/2000/svg" xmlns:xlink="http://www.w3.org/1999/xlink" version="1.1" width="586" height="639" viewBox="0 0 586 639" xml:space="preserve">
<desc>Created with Fabric.js 3.6.6</desc>
<defs>
</defs>
<g transform="matrix(1.25 0 0 1.25 293.46 319.54)" id="Layer_1"  >
<path style="stroke: none; stroke-width: 1; stroke-dasharray: none; stroke-linecap: butt; stroke-dashoffset: 0; stroke-linejoin: miter; stroke-miterlimit: 4; fill: rgb(255,255,255); fill-rule: nonzero; opacity: 1;"  transform=" translate(-256.01, -256.01)" d="M 490.421 137.707 c -0.085 -1.003 -0.149 -2.005 -0.555 -2.987 c -0.107 -0.256 -0.32 -0.427 -0.448 -0.683 c -0.277 -0.533 -0.597 -0.981 -0.96 -1.472 c -0.725 -1.003 -1.536 -1.835 -2.517 -2.517 c -0.256 -0.171 -0.363 -0.491 -0.64 -0.64 l -224 -128 c -3.285 -1.877 -7.296 -1.877 -10.581 0 l -224 128 c -0.256 0.171 -0.363 0.469 -0.619 0.64 c -1.024 0.704 -1.899 1.557 -2.645 2.624 c -0.299 0.427 -0.597 0.811 -0.832 1.28 c -0.149 0.277 -0.384 0.469 -0.512 0.768 c -0.469 1.173 -0.619 2.389 -0.661 3.584 c 0 0.128 -0.107 0.256 -0.107 0.384 v 0.171 c 0 0.021 0 0.021 0 0.043 v 234.304 c 0 0.021 0 0.064 0 0.085 v 0.064 c 0 0.213 0.149 0.405 0.171 0.619 c 0.085 1.493 0.32 2.987 1.045 4.352 c 0.043 0.085 0.128 0.107 0.171 0.192 c 0.277 0.491 0.768 0.811 1.131 1.259 c 0.789 0.981 1.557 1.941 2.603 2.603 c 0.107 0.064 0.149 0.192 0.235 0.235 l 224 128 c 1.664 0.939 3.477 1.408 5.312 1.408 s 3.648 -0.469 5.291 -1.408 l 224 -128 c 0.107 -0.064 0.149 -0.192 0.256 -0.256 c 0.981 -0.597 1.664 -1.493 2.411 -2.389 c 0.427 -0.512 1.003 -0.896 1.323 -1.472 c 0.043 -0.064 0.107 -0.107 0.149 -0.171 c 0.576 -1.109 0.683 -2.325 0.853 -3.52 c 0.064 -0.491 0.384 -0.939 0.384 -1.451 V 138.688 C 490.677 138.347 490.443 138.048 490.421 137.707 z M 455.52 136.981 l -78.251 31.296 L 291.211 43.093 L 455.52 136.981 z M 256.011 29.504 l 97.067 141.184 H 158.944 L 256.011 29.504 z M 220.747 43.115 l -86.037 125.163 L 56.48 136.981 L 220.747 43.115 z M 42.677 154.432 l 80.768 32.32 L 42.677 332.16 V 154.432 z M 138.635 203.392 l 98.325 178.773 L 49.248 364.288 L 138.635 203.392 z M 245.344 482.965 l -165.12 -94.336 l 165.12 15.573 V 482.965 z M 256.011 372.544 l -99.285 -180.523 h 198.571 L 256.011 372.544 z M 266.677 482.965 v -78.571 l 165.035 -15.723 L 266.677 482.965 z M 274.997 382.357 l 98.411 -178.901 l 89.365 160.853 L 274.997 382.357 z M 469.344 332.203 l -80.811 -145.451 l 80.811 -32.32 V 332.203 z" stroke-linecap="round" />
</g>
</svg>